<?xml version="1.0" encoding="UTF-8"?><svg xmlns="http://www.w3.org/2000/svg" xmlns:xlink="http://www.w3.org/1999/xlink" viewBox="0 0 454.06 327.17"><defs><style>.f{fill:url(#e);}.g{fill:url(#d);}</style><linearGradient id="d" x1="351.46" y1="118.14" x2="316.8" y2="243.09" gradientTransform="matrix(1, 0, 0, 1, 0, 0)" gradientUnits="userSpaceOnUse"><stop offset=".01" stop-color="#9eb25c" stop-opacity=".5"/><stop offset="1" stop-color="#326fb5" stop-opacity=".5"/></linearGradient><linearGradient id="e" x1="278.34" y1="-57.49" x2="200.44" y2="211.08" xlink:href="#d"/></defs><g id="a"/><g id="b"><g id="c"><g><path class="g" d="M358.94,209.08l-80.86-8.33c-5.36-.55-10.72,1.06-14.91,4.49-4.18,3.43-6.85,8.39-7.4,13.8l-6.3,61.11c-.56,5.4,1.04,10.8,4.43,15.01,3.4,4.21,8.32,6.89,13.68,7.44l14.66,1.51,20.52,21.48c.83,.88,1.94,1.42,3.14,1.55,1.19,.12,2.39-.19,3.39-.87l24.49-16.84,14.66,1.51c5.36,.55,10.72-1.07,14.91-4.5,4.18-3.43,6.85-8.39,7.4-13.79l6.3-61.11c.56-5.41-1.04-10.81-4.43-15.02-3.4-4.21-8.32-6.89-13.68-7.44Zm-73.9,23.27c.14-1.35,.8-2.59,1.85-3.45,1.04-.86,2.39-1.26,3.73-1.13l25.26,2.61c1.34,.14,2.57,.81,3.42,1.86,.85,1.05,1.25,2.4,1.11,3.75-.14,1.35-.8,2.59-1.85,3.45-1.04,.86-2.39,1.26-3.73,1.12l-25.26-2.6c-1.34-.14-2.57-.81-3.42-1.86-.85-1.05-1.25-2.4-1.11-3.75Zm56.44,46.99c-.14,1.35-.8,2.59-1.85,3.45-1.05,.85-2.39,1.26-3.73,1.12l-50.53-5.21c-1.34-.14-2.57-.81-3.42-1.86s-1.25-2.4-1.11-3.75c.14-1.35,.8-2.59,1.85-3.45,1.05-.86,2.39-1.26,3.73-1.12l50.53,5.2c1.34,.14,2.57,.81,3.42,1.86,.85,1.06,1.25,2.41,1.11,3.76Zm2.1-20.37c-.14,1.35-.8,2.59-1.85,3.45-1.05,.85-2.39,1.26-3.73,1.12l-50.53-5.21c-1.34-.14-2.57-.81-3.42-1.86-.85-1.05-1.25-2.4-1.11-3.75,.14-1.35,.8-2.59,1.85-3.45,1.05-.86,2.39-1.26,3.73-1.12l50.53,5.2c1.34,.14,2.57,.81,3.42,1.86,.85,1.06,1.25,2.41,1.11,3.76Z"/><path class="f" d="M454.06,0V205.02c-1.25,11.86-50.61,91.1-63.56,69.44-5.88-14.36,17.42-61.99-15.3-74.15-16.48-6.12-102.11-19.13-120.52-7.06-21.18,13.89-2.89,57.85-27.77,46.14-36.49-17.19-51.13-79.33-68.73-98.63-24.48-26.83-46.87-34.74-68.73-40.96l-1.07-.3C37.7,85.09,7.03,76.36,2.12,56.96-2.82,37.43-1.41,9.18,31.62,0H454.06Z"/></g></g></g></svg>