<?xml version="1.0" encoding="utf-8"?>
<!-- Generator: Adobe Illustrator 26.1.0, SVG Export Plug-In . SVG Version: 6.00 Build 0)  -->
<svg version="1.1" id="Calque_1" xmlns="http://www.w3.org/2000/svg" xmlns:xlink="http://www.w3.org/1999/xlink" x="0px" y="0px"
	 viewBox="0 0 824.7 863" style="enable-background:new 0 0 824.7 863;" xml:space="preserve">
<style type="text/css">
	.st0{fill:#E7E56C;}
</style>
<path class="st0" d="M578.5,404.6c-10.9-11.9-23.6-22.3-33.7-34.7C531,353,518.2,335.3,506.4,317c-5.5-8.6-8.2-19.2-10.8-29.3
	c-1.4-5.3-1.5-10.9-1.9-16.5h-26.6l-89.7,19.7l-56.3,29.7c-1.7,3.1-3.2,6.2-4.8,9.3c-12.4,25.6-24.1,51.6-36.3,77.3
	c-7,14.9-14.5,29.6-25.2,42.4c-9.5,11.2-21.1,17.5-36.1,16.9c-2-0.1-3.9-0.1-5.9-0.2l-0.9,243.2c9.5-9.4,119.6-49.6,143.3-88.9
	c14.5-24.1,32.3-45.8,37.5-74.2c2.1-11.5,3.5-23.1,5.6-34.5c2.4-12.9,4.8-25.8,8.1-38.5c1.8-6.9,6.1-12.5,13.2-15.4
	c10-4,20.1-5.3,30.8-3.7c11.3,1.7,22.7,3.4,34.1,3.8c14.4,0.5,28.9-0.8,43.3-0.3c7.3,0.3,14.5,2.9,21.7,4.3c6.5,1.3,12.9,3,19.4,3.5
	c4.5,0.3,8.4-2.3,9.6-7.2c0.6-2.4,1.6-3.4,4.2-3.7c7.3-0.8,11.9-5.6,13.6-12.7c0.4-1.9,1.9-3.5,2.8-5.3c0-2,0-4,0-6
	C592.3,421.9,586,412.7,578.5,404.6z M475.5,367.1c-7.9,8.7-21.4,9.3-30.1,1.4s-9.3-21.4-1.4-30.1s21.4-9.3,30.1-1.4
	C482.8,344.9,483.4,358.4,475.5,367.1z"/>
<path class="st0" d="M232.3,241.1c21.3-13.5,41.2-26.1,61.1-38.7c23.8-15.1,47.7-30,71.5-45.2c4.6-3,9.1-4.3,14.7-3.6
	c50.5,6.4,101.1,12.7,151.7,18.9c1,0.1,2,0.3,4.4,0.7c-10.5,6.7-20.2,12.9-29.8,18.9c-35.3,22.3-70.6,44.6-106,66.8
	c-1.9,1.2-4.7,2-6.9,1.8c-31.7-3.7-63.4-7.7-95.2-11.6c-0.6-0.1-1.2-0.3-3-0.9c10.6-4.2,20.1-7.9,29.6-11.7
	c13.2-5.2,26.4-10.5,39.7-15.5c6.3-2.4,12.2-5.9,19.7-2.6c4.4,1.9,10.2-3.2,11.5-8.4c1.4-5.5-1.4-11.4-6.4-13.6
	c-4.7-2.1-11.8-0.6-13.8,4.1c-2.1,5.2-6.2,6.8-10.6,8.6c-30,11.7-60,23.4-90,35c-1.5,0.6-3.2,1.5-4.8,1.4
	C257.7,244.2,245.7,242.7,232.3,241.1z"/>
<path class="st0" d="M276.4,248.4c3-0.7,5.5-1.3,8.5-2c0.5,2,0.8,3.9,1.2,5.7c5,23.4,9.8,46.9,15,70.2c0.5,2.5,2.2,5.1,4,7
	c3.1,3.4,3.9,8.4,1.3,12.1c-2.3,3.4-7.4,4.6-10.9,2.5c-3.9-2.2-5.2-7-3.7-11.6c0.9-2.5,1.2-5.6,0.8-8.2
	c-4.7-23.3-9.8-46.5-14.7-69.8C277.3,252.7,276.9,250.9,276.4,248.4z"/>
<path class="st0" d="M298.3,260.6c15.8,1.9,30.2,3.7,44.7,5.4c16.6,2.1,33.1,4.5,49.8,6c4.1,0.4,9.1-1.2,12.7-3.4
	c24.9-15.3,49.6-31,74.3-46.6c1.4-0.9,2.8-1.6,4.9-2.7c2.1,9.4,4,18.1,6,26.8c2.4,10.8,4.5,21.7,7.4,32.4c1.7,6.4,0.1,11.4-3.9,16.2
	c-8.7,10.5-20,17.7-32,23.8c-38.8,19.6-79.6,27.4-122.8,20.1c-4.3-0.7-8.6-1.9-12.7-3.3c-8.7-2.9-14.2-8-15.9-17.9
	C307.4,298.6,302.7,280.2,298.3,260.6z"/>
</svg>
