<?xml version="1.0" encoding="utf-8"?>
<!-- Generator: Adobe Illustrator 26.1.0, SVG Export Plug-In . SVG Version: 6.00 Build 0)  -->
<svg version="1.1" id="Calque_1" xmlns="http://www.w3.org/2000/svg" xmlns:xlink="http://www.w3.org/1999/xlink" x="0px" y="0px"
	 viewBox="0 0 824.7 863" style="enable-background:new 0 0 824.7 863;" xml:space="preserve">
<style type="text/css">
	.st0{fill:#9EB25C;}
	.st1{fill:#FFFFFF;}
</style>
<path class="st0" d="M629.2,553.6c-3.9-6.7-8.4-13.1-12.8-19.5c-3.4-5.1-6.9-10-10.3-15.1c-2.4-3.5-4.7-7-7.1-10.5
	c-3.8-5.7-7.8-11.3-11.6-17c-1.5-2.2-3-4.4-4.6-6.4c-3-4.3-6.2-8.6-9.3-12.9c-2.3-3.1-4.5-6.4-6.9-9.5c-2.6-3.5-5.2-6.9-7.8-10.3
	c-0.5-0.8-1.1-1.5-1.7-2.3c-0.9-3.3-1.7-6.7-2.3-10.1c-1.8-9.9-5.1-19.2-13.1-25.3c-8.8-6.7-13.9-15.7-19.2-24.7
	c-10.7-18.3-26.9-31.2-45.2-37.6c-0.2-0.2-0.3-0.3-0.5-0.5c-1.9-2.4-3.8-4.7-5.8-7c-2.4-2.6-4.9-5.1-7.3-7.8
	c-0.2-0.2-0.3-0.3-0.4-0.4c-2.2-2.5-4.2-5.2-6.4-7.7c-3-3.2-6.2-6.4-9.3-9.5c-0.2-0.2-0.3-0.3-0.4-0.4c-2.5-2.9-4.9-5.9-7.5-8.7
	c-2.9-3-6.2-5.7-9-9.1c-3.8-4.5-8.8-7.9-12.6-12.5c-3.3-3.9-7.5-7-11-10.8c-4.4-5-9.6-9.4-14.5-14.1c-7.2-7.1-15.2-13.4-22.7-20
	c-2.2-1.9-4.3-3.9-6.4-5.8c-9-7.8-17.9-15.7-26.8-23.5c-0.3-0.3-0.6-0.5-1-0.8c-3.2-2.4-6.6-4.6-9.8-7.1c-3.5-2.6-6.8-5.5-10.1-8.2
	c-0.1-0.1-0.2-0.1-0.3-0.2c-3.6-2.6-7.1-5.2-10.6-7.9c-0.3-0.3-0.6-0.5-1-0.8c-2.7-1.8-5.4-3.6-8-5.5c-2.8-2-5.4-4.3-8.2-6.4
	c-0.3-0.2-0.4-0.3-0.7-0.5c-2.3-1.5-4.6-3-6.9-4.5c-3.2-2.2-6.4-4.5-9.7-6.7c-2-1.4-4.2-2.5-6.2-3.9c-2.9-1.8-126-74.7-129.2-76.9
	c-1.3,1.7,25.3,19.9,52.9,38.5c31.4,22.8,65.1,47.5,65.9,48.2c2.8,2.2,5.2,4.7,8.3,6.7c4.1,2.7,7.8,6.1,11.5,9.4
	c9.1,8.2,18.1,16.5,27.2,24.6c1.8,1.7,3.3,3.7,4.6,5.7c0.3,0.5,0.6,1,1,1.4c5.5,5.3,11,10.6,16.4,15.9c2.4,2.4,4.7,4.8,6.9,7.3
	s4.3,5.1,6.4,7.7c2.4,2.7,5,5.3,7.5,7.9c0.2,0.2,0.3,0.3,0.3,0.4c1.7,2.2,3.4,4.4,5.1,6.4c2.5,3,5.1,5.9,7.6,9c2.4,3,4.5,6.1,7,9.1
	c3.4,4.2,7,8.2,10.4,12.5c3.7,4.5,7.1,9.1,10.7,13.6c1,1.2,2,2.4,2.9,3.7c2.2,3.1,4.3,6.4,6.4,9.5c4.3,6.2,8.6,12.4,12.9,18.6
	c0.3,0.4,0.3,1.1,0.4,2.1c-1.5-1.2-2.6-2.3-3.8-3.1c-2.2-1.5-4.4-2.9-6.6-4.4c-2.3-1.6-4.4-3.4-6.6-5c-1.7-1.3-3.5-2.5-5.3-3.7
	c-2.4-1.6-4.8-3-7.1-4.7c-2.3-1.6-4.4-3.3-6.6-5c-1.7-1.2-3.4-2.4-5.1-3.6c-2.3-1.6-4.6-3-6.9-4.5c-1.7-1.2-3.5-2.4-5.4-3.7
	c-3.7,4-7.1,7.7-10.4,11.5c-0.4,0.4-0.6,1.2-0.6,1.9c-0.1,5.5,0.5,10.9,1.9,16.2c2.1,7.8,5.2,15.3,9.8,22c0.9,1.3,1.8,2.5,2.8,3.7
	c2.4,3,4.8,6.3,7.5,9.1c3.3,3.4,7,6.4,10.5,9.7c0.6,0.5,1.2,1,1.8,1.5c1,0.6,1.9,1.2,2.8,1.8c-15.7,22.4-20.3,52-10.1,79.1
	c1.7,4.7,4.1,7,8.7,7.2c-1.1,5.1-1.9,10.3-2.5,15.4c-1,8.3-1,16.7-1.5,25.1c-0.1,1.8,0,3.8-0.4,5.6c-0.9,3.7-1.4,7.3-2.6,10.9
	c-2.3,6.5-4,13.2-6,19.9c-0.2,0.4-0.3,1-0.4,1.4c-3.6,6.4-7.1,12.9-10.6,19.2c-1.1,1.9-2.6,3.7-3.8,5.6c-1.6,2.4-3,5-4.9,7
	c-2.8,3-6.1,6.3-9.1,9.1v199c0,0,71.9-54.4,100.7-107.8l0,0c0-0.1,0.1-0.2,0.1-0.3c1.9-3.5,3-6.9,3.7-10.3c0.4-1.2,0.8-2.4,1.2-3.7
	c0.9-2.5,1.7-5.1,2.5-7.6c1.8-5.2,4-10.3,5.6-15.5c5.7-19.3,11.1-38.8,15.9-58.4c0.1-0.3,0.3-0.8,0.3-1.1c0.9-5,1.7-9.9,2.6-14.8
	c1.9-10.2,3.9-20.3,6-30.4c0.2-1,0.6-2,1-3.4c5.1,1.6,10.2,3.1,15.2,4.7c0.6,0.3,1.3,0.6,2.1,0.7c1.7,0.5,3.5,1.1,5.2,1.7
	c4.2,1.4,8.4,3,12.4,4.7c6.1,2.5,12.2,5.1,18.1,7.8c7.2,3.5,14.5,7.1,21.6,10.8c3.7,1.9,7.1,4,10.7,6.1c2.9,1.7,5.8,3.2,8.6,5
	c5.1,3.1,10.1,6.4,15.5,8.9c9.3,4.7,26.7-13.2,36.5-21.3C626.4,560.7,630.9,557.6,629.2,553.6z M247.4,166.5
	c0.3,0.3-28-20.2-56.4-40.8C219.8,145.3,248.7,164.8,247.4,166.5z M536.3,458.5c-9.5,10.5-25.6,11.1-36.1,1.7
	c-10.5-9.5-11.1-25.6-1.7-36.1c9.5-10.5,25.6-11.1,36.1-1.7C545,432,545.8,448.2,536.3,458.5z"/>
<path class="st0" d="M680.9,583.4c1.8-1,3.2-1.7,5.1-2.7c3.9,5.1,7.8,10.1,12.2,15.9c-28,21.3-55.7,42.2-83.7,63.5
	c-4.2-5.5-8-10.5-12.1-15.9c1.3-1.4,2.5-2.6,3.5-3.7c-4.1-5.9-8-11.5-11.9-17.1c-6.4-9.1-5.4-18.3,3.4-25.1
	c15.2-11.8,30.6-23.3,45.9-34.9c8.7-6.5,18.3-5.1,25.1,3.5C672.5,572.2,676.5,577.6,680.9,583.4z"/>
<path class="st0" d="M403.3,340.2c-2.2-1.5-4.4-2.9-6.6-4.4c-2.3-1.6-4.4-3.4-6.6-5c-1.7-1.3-3.5-2.5-5.3-3.7
	c-2.4-1.6-4.8-3-7.1-4.7c-2.3-1.6-4.4-3.3-6.6-5c-1.7-1.2-3.4-2.4-5.1-3.6c-2.3-1.6-4.6-3-6.9-4.5c-1.7-1.2-3.5-2.4-5.4-3.7
	c-8.3-7.5-10-4.9-13.4-1.1c-0.4,0.4-0.3,12.1-0.3,12.7c-0.1,5.5,3.1,12.6,4.5,17.9c2.1,7.8,5.2,15.3,9.8,22c0.9,1.3,1.8,2.5,2.8,3.7
	c2.4,3,4.8,6.3,7.5,9.1c3.3,3.4,7,6.4,10.5,9.7c0.6,0.5,1.2,1,1.8,1.5c1,0.6,1.9,1.2,2.8,1.8l27.2-39.7
	C405.6,342.1,404.6,341,403.3,340.2z"/>
<path class="st0" d="M211.4,692.8c-2.4,0-4.8-1.6-5.6-4c-1-3.1,0.6-6.4,3.7-7.5l36.7-12.5c3.1-1,6.4,0.6,7.5,3.7s-0.6,6.4-3.7,7.5
	l-36.7,12.5C212.6,692.7,212,692.8,211.4,692.8z"/>
<path class="st0" d="M247.8,630.7c-0.6,0-1.2-0.1-1.8-0.3L209,618.8c-3.1-1-4.9-4.4-3.8-7.4c1-3.1,4.4-4.9,7.4-3.8l36.9,11.7
	c3.1,1,4.9,4.4,3.8,7.4C252.7,629.1,250.3,630.7,247.8,630.7z"/>
<path class="st0" d="M277.6,590.2c-1.8,0-3.7-0.9-4.8-2.4l-22.6-31.4c-1.9-2.7-1.3-6.4,1.4-8.3s6.4-1.3,8.3,1.4l22.6,31.4
	c1.9,2.7,1.3,6.4-1.4,8.3C279.9,589.8,278.8,590.2,277.6,590.2z"/>
<path class="st0" d="M324.4,673.5v14.3c-0.7,0-1.5,0-2.2,0c-23.3,0-43.3,8.7-60.5,24.8c-3.2-3.5-6-6.5-9.2-9.9
	C271.9,682,298.6,673.1,324.4,673.5z"/>
<path class="st0" d="M324.4,702.1v14c-13.7-0.6-28.4,3.9-42.1,15.6c-3.3-3-6.4-5.9-9.7-8.8C286.3,707.7,305.9,701.5,324.4,702.1z"/>
<path class="st0" d="M324.4,730.4v14.2c-7.4-0.7-14.8,1.9-22,7.7c-3.4-3-6.6-6-10.1-9.1C300.8,734.3,312.9,730.1,324.4,730.4z"/>
<path class="st0" d="M321.9,758.8c0.9,0,1.7,0.1,2.5,0.2v27.9c-0.7,0.1-1.5,0.2-2.2,0.2c-7.8,0-14.1-6.1-14.3-13.9
	C307.8,765.4,314,759,321.9,758.8z"/>
<path class="st0" d="M323.8,659.9l0.6-70.5c-0.4,0-0.8,0-1.2,0c-32.9,0-59.7,26.7-59.7,59.7c0,10.5,2.7,16.3,7.5,24.8
	C287.2,663.2,305.4,660.1,323.8,659.9z"/>
<path class="st0" d="M316.7,574c-1.5-1.1-2.4-2.9-2.4-4.9l0.4-38.7c0-3.3,2.7-5.9,6-5.8c3.3,0,5.9,2.7,5.8,6l-0.4,38.7
	c0,3.3-2.7,5.9-6,5.8C318.8,575.2,317.6,574.7,316.7,574z"/>
<path class="st0" d="M330.3,341.5c-1.1,0-2.2-0.5-3-1.5c-13.8-17.9-3.6-46.8-3-48c0.7-1.9,2.8-2.9,4.7-2.2c1.9,0.7,2.9,2.8,2.2,4.7
	l0,0c-0.1,0.3-9.3,26.3,2,40.9c1.2,1.7,1,3.9-0.7,5.2C331.8,341.3,331,341.5,330.3,341.5z"/>
<path class="st0" d="M307.7,337.8c-1,0-2.2-0.4-2.9-1.4c-12.9-16.1-1.5-40.3-1-41.4c0.9-1.8,3.1-2.6,5-1.7c1.8,0.9,2.6,3.1,1.7,5
	l0,0c-0.1,0.2-9.8,21.1,0.1,33.5c1.3,1.6,1,3.9-0.6,5.2C309.3,337.6,308.5,337.8,307.7,337.8z"/>
<path class="st1" d="M461.9,762.8c-1.7-3.7-4.4-8.3-8.1-13.9l-41.4-63.8l38.4-57.5c6.8-10.2,10.3-18.3,10.3-24.2
	c0-4.1-1.6-7.6-4.7-10.5c-3.1-3-7.2-4.4-12.2-4.4c-2.8,0-5.1,0.4-7.2,1.4c-2.1,1-4,2.4-5.7,4.2c-1.7,1.8-3.4,4.2-5.2,7.1
	c-1.8,2.9-4,6.3-6.6,10.3l-31.3,47.4L359,611.3c-5.4-8.8-9.7-14.8-12.7-18c-2.4-2.5-5.7-4.1-9.6-4.6V644l26.7,41.2l-26.7,38.9v63.6
	c1.5-0.9,2.9-1.8,4.1-3c1.7-1.7,3.1-3.4,4.4-5.2c1.2-1.7,3.2-4.9,6.1-9.3l36.5-55.7l34.3,54c4.4,6.6,7.3,11.1,8.9,13.4
	c1.6,2.3,3.7,4.3,6.3,5.7c2.6,1.6,5.7,2.4,9.4,2.4c3.5,0,6.5-0.8,9.3-2.3c2.8-1.5,4.9-3.6,6.4-6.1c1.5-2.6,2.3-5.4,2.3-8.5
	C464.5,769.9,463.6,766.4,461.9,762.8z"/>
</svg>
