<?xml version="1.0" encoding="UTF-8"?><svg xmlns="http://www.w3.org/2000/svg" viewBox="0 0 476.78 213.25"><defs><style>.d{fill:#1d1d1b;}</style></defs><g id="a"/><g id="b"><g id="c"><path class="d" d="M0,155.16c0-25.2,14.36-40.42,37.01-40.42,18.8,0,33.11,11.92,34.35,29.42h-15.93c-1.52-9.59-8.89-15.88-18.42-15.88-12.35,0-20.32,10.35-20.32,26.82s7.86,26.98,20.37,26.98c9.7,0,16.69-5.69,18.42-14.96h15.93c-1.84,17.45-15.23,28.5-34.41,28.5-22.76,0-37.01-15.23-37.01-40.47Z"/><path class="d" d="M82.76,177.59c0-10.57,8.13-16.69,22.59-17.56l14.63-.87v-3.85c0-5.42-3.79-8.56-9.75-8.56s-9.64,2.93-10.4,7.21h-14.47c.6-11.27,10.19-19.02,25.57-19.02s24.6,7.69,24.6,19.4v39.93h-15.28v-8.89h-.33c-3.25,6.18-10.46,9.81-17.72,9.81-11.05,0-19.45-7.15-19.45-17.61Zm37.22-4.61v-4.23l-12.25,.76c-5.91,.43-9.27,3.09-9.27,7.21,0,4.33,3.58,7.04,8.94,7.04,6.88,0,12.57-4.5,12.57-10.78Z"/><path class="d" d="M208.54,165.24c0,18.69-8.99,29.96-23.52,29.96-8.45,0-14.95-4.12-18.04-10.67h-.33v28.72h-15.82v-77.05h15.6v10.13h.33c3.14-6.83,9.59-11.05,17.99-11.05,14.74,0,23.79,11.22,23.79,29.96Zm-16.2,0c0-10.51-4.98-17.28-12.9-17.28s-12.84,6.88-12.84,17.28,5.09,17.23,12.84,17.23,12.9-6.66,12.9-17.23Z"/><path class="d" d="M241.83,122.81v13.38h10.73v11.92h-10.73v27.8c0,4.44,2.17,6.56,6.83,6.56,1.41,0,2.87-.11,3.85-.27v11.65c-1.63,.38-4.33,.65-7.53,.65-13.65,0-18.96-4.55-18.96-15.88v-30.5h-8.18v-11.92h8.18v-13.38h15.82Z"/><path class="d" d="M309.5,117.29l-.41-1.19h-19.24l-1.66,4.78-.2,.57-25.29,72.83h16.8l5.96-18.96h27.47l5.96,18.96h17.4l-26.79-76.99Zm-20.52,45.78l9.92-31.67,.11-.35h.38l.35,1.12,9.67,30.9h-20.43Z"/><path class="d" d="M348.28,136.2h15.82v58.08h-15.82v-58.08Z"/><path class="d" d="M379.72,136.2h15.28v10.46h.33c2.06-7.37,6.99-11.38,13.82-11.38,1.84,0,3.41,.27,4.5,.6v13.93c-1.3-.54-3.47-.92-5.74-.92-7.8,0-12.35,4.77-12.35,12.95v32.46h-15.82v-58.08Z"/><path class="d" d="M476.29,176.51c-1.73,11.38-12.14,19.02-26.5,19.02-17.88,0-28.61-11.43-28.61-30.02s10.84-30.56,28.01-30.56,27.58,11.43,27.58,29.1v4.82h-40.04v.98c0,8.29,5.26,13.98,13.33,13.98,5.8,0,10.24-2.87,11.7-7.32h14.52Zm-39.39-17.34h24.65c-.33-7.42-5.15-12.52-12.19-12.52s-11.92,5.26-12.46,12.52Z"/><path class="d" d="M366.36,114.9c.49-.25,.86-.44,1.36-.72,1.04,1.34,2.06,2.68,3.24,4.21-7.43,5.64-14.81,11.22-22.23,16.86-1.11-1.46-2.13-2.8-3.22-4.23,.35-.37,.67-.69,.93-.97-1.09-1.57-2.13-3.05-3.17-4.53-1.71-2.41-1.43-4.86,.9-6.66,4.05-3.12,8.12-6.2,12.19-9.28,2.31-1.73,4.86-1.36,6.66,.93,1.11,1.43,2.15,2.85,3.33,4.4Z"/><path class="d" d="M311.69,101.35c.05-.28,.16-.53,.28-.9,1.36,.42,2.71,.83,4.02,1.25,.17,.09,.35,.16,.56,.18,.46,.14,.92,.3,1.39,.44,1.11,.37,2.22,.81,3.28,1.25,1.62,.67,3.24,1.34,4.81,2.08,1.92,.93,3.84,1.9,5.74,2.87,.97,.51,1.9,1.07,2.85,1.62,.76,.44,1.55,.86,2.29,1.32,1.34,.83,2.68,1.71,4.11,2.36,2.48,1.25,7.11-3.52,9.7-5.64,1.04-.72,2.24-1.55,1.78-2.62-1.04-1.78-2.25-3.47-3.4-5.18-.9-1.34-1.83-2.66-2.73-4-.63-.93-1.25-1.85-1.9-2.78-1.02-1.5-2.06-3.01-3.08-4.51-.39-.58-.81-1.16-1.22-1.71-.81-1.13-1.64-2.29-2.48-3.42-.6-.84-1.2-1.69-1.82-2.53-.7-.92-1.39-1.82-2.09-2.73-.14-.2-.3-.39-.44-.6-.23-.88-.44-1.78-.6-2.68-.48-2.64-1.34-5.11-3.47-6.73-2.33-1.78-3.7-4.17-5.09-6.57-2.84-4.86-7.15-8.28-12-10-.05-.04-.1-.09-.14-.13-.51-.63-1.02-1.25-1.55-1.86-.63-.69-1.3-1.36-1.95-2.05-.04-.05-.06-.07-.11-.12-.58-.67-1.11-1.39-1.71-2.04-.81-.85-1.65-1.68-2.48-2.52l-.11-.11c-.67-.77-1.3-1.58-1.99-2.32-.77-.81-1.65-1.52-2.39-2.4-1.01-1.21-2.33-2.11-3.35-3.33-.88-1.04-1.99-1.85-2.91-2.87-1.18-1.32-2.55-2.5-3.85-3.75-1.92-1.87-4.02-3.56-6.03-5.32-.58-.51-1.14-1.04-1.71-1.55-2.39-2.08-4.75-4.16-7.13-6.25-.07-.07-.16-.13-.25-.2-.86-.63-1.76-1.23-2.6-1.88-.92-.69-1.8-1.46-2.68-2.17-.02-.03-.04-.03-.07-.05-.95-.69-1.89-1.39-2.82-2.1-.09-.07-.16-.14-.25-.21-.72-.49-1.44-.95-2.13-1.46-.74-.53-1.44-1.13-2.18-1.69-.07-.04-.11-.09-.18-.14-.6-.39-1.23-.78-1.83-1.2-.86-.58-1.71-1.2-2.57-1.78-.53-.37-1.11-.67-1.64-1.04-.76-.49-1.5-1.02-2.34-1.58-.74,.95-1.43,1.86-2.15,2.78,.16,.16,.26,.32,.42,.42,.44,.32,.9,.62,1.32,.97,.74,.58,1.38,1.25,2.19,1.78,1.09,.72,2.09,1.62,3.06,2.5,2.43,2.17,4.81,4.37,7.22,6.55,.48,.43,.87,.97,1.22,1.52,.09,.14,.16,.28,.28,.37,1.46,1.41,2.91,2.82,4.35,4.24,.62,.62,1.25,1.27,1.83,1.94,.57,.67,1.13,1.36,1.71,2.03,.65,.72,1.32,1.42,1.99,2.11,.04,.05,.07,.07,.09,.12,.46,.57,.9,1.15,1.36,1.71,.68,.81,1.37,1.57,2.02,2.38,.64,.79,1.2,1.62,1.85,2.41,.9,1.11,1.85,2.17,2.75,3.3,.97,1.21,1.9,2.41,2.85,3.61,.25,.33,.53,.65,.76,1,.58,.83,1.13,1.69,1.69,2.52,1.13,1.64,2.29,3.28,3.42,4.95,.09,.11,.07,.3,.12,.55-.4-.32-.7-.6-1.02-.83-.58-.39-1.18-.76-1.76-1.18-.6-.41-1.16-.9-1.76-1.32-.46-.34-.92-.67-1.41-.99-.62-.42-1.27-.81-1.87-1.25-.6-.42-1.16-.88-1.76-1.32-.44-.32-.9-.62-1.34-.95-.6-.41-1.23-.78-1.83-1.2-.46-.32-.92-.65-1.43-1-.97,1.07-1.88,2.04-2.76,3.06-.11,.11-.16,.32-.16,.51-.02,1.45,.14,2.89,.51,4.3,.56,2.08,1.39,4.07,2.59,5.85,.23,.35,.49,.67,.74,1,.65,.81,1.27,1.66,1.99,2.4,.88,.91,1.85,1.71,2.8,2.57,.16,.14,.32,.28,.49,.39,.25,.17,.51,.33,.74,.49-4.17,5.95-5.39,13.81-2.69,21,.47,1.25,1.09,1.86,2.32,1.92-.3,1.37-.51,2.73-.67,4.1-.26,2.2-.28,4.44-.4,6.66-.02,.49,0,1.02-.11,1.48-.23,.97-.37,1.95-.7,2.89-.6,1.74-1.06,3.52-1.59,5.28-.05,.11-.07,.25-.12,.37-.95,1.71-1.87,3.42-2.82,5.11-.3,.51-.7,.97-1.02,1.48-.42,.63-.79,1.32-1.29,1.85-.74,.81-1.99,5.06-1.36,7.3l9.18,3.95,3.91-10.09,20.09,.14m18.77-33.41c-2.52,2.78-6.8,2.96-9.58,.44-2.78-2.52-2.96-6.8-.44-9.57,2.52-2.78,6.8-2.97,9.58-.44,2.75,2.52,2.96,6.82,.44,9.57Z"/></g></g></svg>